HIERARCHY
ROOT root
{
	OFFSET	0	13.1	24.9
	CHANNELS 6  Xposition Yposition Zposition Xrotation Yrotation Zrotation
	JOINT spine_1
	{
		OFFSET	0	9.99999	0
		CHANNELS 3  Xrotation Yrotation Zrotation
		JOINT spine_2
		{
			OFFSET	0	112	-10
			CHANNELS 3  Xrotation Yrotation Zrotation
			JOINT spine_3
			{
				OFFSET	0	206.5	19.3
				CHANNELS 3  Xrotation Yrotation Zrotation
				JOINT spine_4
				{
					OFFSET	0	110.4	14.6
					CHANNELS 3  Xrotation Yrotation Zrotation
					JOINT neck_1
					{
						OFFSET	0	71.8	-50.3
						CHANNELS 3  Xrotation Yrotation Zrotation
						JOINT neck_2
						{
							OFFSET	0	86.2	-25.8
							CHANNELS 3  Xrotation Yrotation Zrotation
							JOINT head_ee
							{
								OFFSET	0	179.8	-8.7
								CHANNELS 3  Xrotation Yrotation Zrotation
								End Site
								{
									OFFSET	1	0	0
								}
							}
						}
					}
					JOINT left_clavicle
					{
						OFFSET	-43.2	22.4	-70.8
						CHANNELS 3  Xrotation Yrotation Zrotation
						JOINT left_shoulder
						{
							OFFSET	-93.9	-5.79999	48.7
							CHANNELS 3  Xrotation Yrotation Zrotation
							JOINT left_elbow
							{
								OFFSET	-291.4	-30.8	15.2
								CHANNELS 3  Xrotation Yrotation Zrotation
								JOINT left_lowarm_twist
								{
									OFFSET	-110.7	-3.89999	13.6
									CHANNELS 3  Xrotation Yrotation Zrotation
									JOINT left_hand
									{
										OFFSET	-110.7	-3.89999	13.6
										CHANNELS 3  Xrotation Yrotation Zrotation
										JOINT left_ee
										{
											OFFSET	-80.8	-5.10001	12.1
											CHANNELS 3  Xrotation Yrotation Zrotation
											End Site
											{
												OFFSET	1	0	0
											}
										}
									}
								}
							}
						}
					}
					JOINT right_clavicle
					{
						OFFSET	43.2	22.4	-70.8
						CHANNELS 3  Xrotation Yrotation Zrotation
						JOINT right_shoulder
						{
							OFFSET	93.9	-5.79999	48.7
							CHANNELS 3  Xrotation Yrotation Zrotation
							JOINT right_elbow
							{
								OFFSET	291.4	-30.8	15.2
								CHANNELS 3  Xrotation Yrotation Zrotation
								JOINT right_lowarm_twist
								{
									OFFSET	110.7	-3.89999	13.6
									CHANNELS 3  Xrotation Yrotation Zrotation
									JOINT right_hand
									{
										OFFSET	110.7	-3.89999	13.6
										CHANNELS 3  Xrotation Yrotation Zrotation
										JOINT right_ee
										{
											OFFSET	80.8	-5.10001	12.1
											CHANNELS 3  Xrotation Yrotation Zrotation
											End Site
											{
												OFFSET	1	0	0
											}
										}
									}
								}
							}
						}
					}
				}
			}
		}
	}
	JOINT left_hip
	{
		OFFSET	-82.8	-127.5	0.300001
		CHANNELS 3  Xrotation Yrotation Zrotation
		JOINT left_knee
		{
			OFFSET	-28.2	-396.7	2.2
			CHANNELS 3  Xrotation Yrotation Zrotation
			JOINT left_ankle
			{
				OFFSET	-11.7	-411.3	35.4
				CHANNELS 3  Xrotation Yrotation Zrotation
				JOINT left_toes
				{
					OFFSET	0	-60	-88.6
					CHANNELS 3  Xrotation Yrotation Zrotation
					JOINT left_foot_ee
					{
						OFFSET	-22.5	-16.5	-42.2
						CHANNELS 3  Xrotation Yrotation Zrotation
						End Site
						{
							OFFSET	1	0	0
						}
					}
				}
			}
		}
	}
	JOINT right_hip
	{
		OFFSET	82.8	-127.5	0.300001
		CHANNELS 3  Xrotation Yrotation Zrotation
		JOINT right_knee
		{
			OFFSET	28.2	-396.7	2.2
			CHANNELS 3  Xrotation Yrotation Zrotation
			JOINT right_ankle
			{
				OFFSET	11.7	-411.3	35.4
				CHANNELS 3  Xrotation Yrotation Zrotation
				JOINT right_toes
				{
					OFFSET	0	-60	-88.6
					CHANNELS 3  Xrotation Yrotation Zrotation
					JOINT right_foot_ee
					{
						OFFSET	22.5	-16.5	-42.2
						CHANNELS 3  Xrotation Yrotation Zrotation
						End Site
						{
							OFFSET	1	0	0
						}
					}
				}
			}
		}
	}
}
MOTION
Frames: 15
Frame Time: 0.02
872.644 716.565 -1588.04 -138.872 83.9885 134.317 1.68455 0.509947 4.67033 1.69665 0.212063 4.69325 1.71449 -0.641293 4.65415 1.68429 0.10095 4.69694 -14.5458 3.63357 -10.7672 -14.3615 13.4275 -9.06484 -0.0 0.0 -0.0 -9.53618 12.5139 -14.9027 -10.0979 -26.6987 74.9563 0.48536 -13.5194 0.0575297 -40.6708 -3.02278 4.10842 3.05477 11.2326 24.939 -0.0 0.0 -0.0 10.9907 0.605413 -21.756 1.02478 9.1389 -69.2664 3.08707 56.8066 -1.66969 6.25402 -0.177994 0.778642 2.62203 13.4613 -11.9952 0.0 0.0 0.0 21.2637 -0.779586 -4.50736 -10.7336 0.290989 1.61915 24.5812 4.87191 -3.28368 -37.7134 0.0 0.0 -0.0 0.0 -0.0 11.2019 13.4718 -5.9163 -1.58033 -0.0618362 -0.234633 38.5592 -20.7829 4.91124 -30.6722 0.0 0.0 0.0 0.0 0.0 
866.118 719.619 -1583.69 -136.561 83.6876 131.547 1.80847 0.564184 4.72828 1.82086 0.262516 4.75452 1.84277 -0.592042 4.72488 1.81167 0.16072 4.75904 -13.5647 3.71219 -10.487 -13.3765 13.5609 -8.88837 -0.0 0.0 -0.0 -9.31377 11.8085 -14.7512 -10.265 -27.0794 75.0564 0.510769 -14.1992 0.0636162 -40.7371 -3.0299 4.1131 3.05072 11.5914 25.0243 -0.0 0.0 -0.0 11.0787 0.333587 -21.9247 -1.12124 9.58778 -68.3311 3.09941 56.9112 -1.68002 4.22452 -0.129571 0.523927 2.78731 14.7305 -12.5374 0.0 0.0 0.0 21.1467 -0.957549 -2.42498 -7.4561 0.234415 1.11947 20.931 4.20525 -2.84892 -38.0747 0.0 0.0 -0.0 0.0 -0.0 10.9503 13.1974 -4.79467 -1.33973 -0.0528407 -0.198806 37.9378 -21.5041 4.86853 -32.4186 0.0 0.0 0.0 0.0 0.0 
858.227 723.668 -1580.41 -133.277 82.9852 128.203 2.04688 0.546341 4.58798 2.05855 0.253607 4.61338 2.07834 -0.556616 4.58675 2.04904 0.173963 4.61706 -13.3123 3.18731 -10.0183 -13.1247 12.3096 -8.62543 -0.0 0.0 -0.0 -9.06045 11.2713 -14.4743 -9.985 -28.271 75.4987 0.496486 -13.8175 0.0601588 -41.3233 -3.09299 4.15407 3.03399 12.1106 25.0692 -0.0 0.0 -0.0 11.2317 0.044141 -22.2286 -2.95489 9.15987 -67.8563 3.11501 57.0425 -1.6931 1.97174 -0.065287 0.24336 2.38157 12.121 -10.9578 0.0 0.0 0.0 20.7299 -1.09743 -1.99273 -4.80515 0.167803 0.71814 17.8744 3.13888 -2.47031 -38.8666 0.0 0.0 -0.0 0.0 -0.0 10.4679 16.8464 -3.79296 -1.3597 -0.0535929 -0.201778 40.1434 -21.1749 5.07054 -35.1749 0.0 0.0 0.0 0.0 0.0 
852.711 719.494 -1577.87 -135.629 82.1811 130.205 2.29257 0.538263 4.55322 2.30407 0.247749 4.57818 2.32247 -0.536792 4.5534 2.2936 0.188288 4.581 -13.1282 3.52746 -9.97137 -12.9497 12.9531 -8.49933 -0.0 0.0 -0.0 -8.80544 10.3005 -14.3342 -9.43422 -28.0237 75.4549 0.563256 -15.5903 0.0771088 -41.897 -3.15513 4.19355 2.98743 12.7877 24.9506 -0.0 0.0 -0.0 11.107 -1.91069 -21.8232 -4.17196 8.68116 -67.8772 3.21122 57.8322 -1.77419 0.917631 -0.0314268 0.112983 2.84636 15.6937 -12.4859 0.0 0.0 0.0 20.759 -1.39352 -1.5752 -3.63192 0.132407 0.541569 14.2032 2.38415 -1.99598 -39.2568 0.0 0.0 -0.0 0.0 -0.0 11.1119 13.0295 -3.62551 -1.59079 -0.0622245 -0.236193 39.3344 -21.2023 4.99535 -34.2875 0.0 0.0 0.0 0.0 0.0 
846.596 720.298 -1575.0 -136.307 81.6956 130.743 2.31349 0.536553 4.5638 2.32504 0.245371 4.58863 2.34323 -0.539275 4.56348 2.31423 0.187425 4.59135 -11.9304 3.9825 -9.08467 -11.7802 13.4097 -7.65517 -0.0 0.0 -0.0 -8.60215 8.27366 -14.6193 -9.13649 -28.0399 74.8613 0.591873 -16.3411 0.0849806 -41.4664 -3.10844 4.16397 3.00932 12.8342 25.1192 -0.0 0.0 -0.0 11.066 -1.67797 -21.7565 -5.17861 8.17647 -67.9733 3.23009 57.9832 -1.79018 -0.560336 0.0200796 -0.0687419 2.74733 14.0236 -12.5945 0.0 0.0 0.0 20.8184 -1.40902 -1.03834 -3.00375 0.111968 0.44733 11.8964 2.17 -1.68759 -39.5163 0.0 0.0 -0.0 0.0 -0.0 11.0636 12.7759 -3.27348 -1.5933 -0.0623174 -0.236567 40.7293 -21.9199 5.14443 -35.0435 0.0 0.0 0.0 0.0 0.0 
841.961 717.627 -1576.29 -138.492 80.6838 132.605 2.41835 0.542452 4.62113 2.43019 0.247623 4.64621 2.44844 -0.53838 4.6216 2.41869 0.197458 4.64861 -11.3653 4.31642 -8.62575 -11.2302 13.8073 -7.18886 -0.0 0.0 -0.0 -8.26596 6.53843 -14.517 -8.43089 -28.3245 74.6442 0.606667 -16.727 0.0891905 -41.1918 -3.0788 4.14494 3.01125 13.0014 25.1841 -0.0 0.0 -0.0 11.0417 -2.09914 -21.6729 -6.41164 7.52443 -68.2192 3.22536 57.9454 -1.78617 -1.51943 0.056008 -0.185943 2.66728 12.9244 -12.5539 0.0 0.0 0.0 20.9329 -1.49387 -0.973508 -2.45535 0.0932805 0.36524 10.0494 1.55353 -1.43694 -39.8479 0.0 0.0 -0.0 0.0 -0.0 11.107 12.6695 -2.7766 -1.6908 -0.0659163 -0.251098 42.2546 -21.6766 5.27574 -35.4444 0.0 0.0 0.0 0.0 0.0 
834.006 717.641 -1576.72 -143.361 79.699 137.434 2.61324 0.544638 4.65363 2.62525 0.247743 4.67879 2.64298 -0.527927 4.65556 2.6128 0.213125 4.68049 -9.52168 4.01824 -6.59862 -9.42358 12.0562 -5.50574 -0.0 0.0 -0.0 -7.99174 4.40098 -14.6155 -8.12428 -29.2615 73.5376 0.636732 -17.5063 0.0980395 -40.4918 -3.00362 4.09576 3.38627 12.3915 27.6794 -0.0 0.0 -0.0 11.358 -1.74513 -22.359 -7.01882 6.94391 -68.4505 2.63595 52.545 -1.30137 -3.04926 0.117368 -0.371616 2.52264 11.069 -12.4022 0.0 0.0 0.0 20.9583 -1.39238 -0.695407 -2.55405 0.0967021 0.380001 12.2508 0.629828 -1.7407 -39.38 0.0 0.0 -0.0 0.0 -0.0 10.1017 12.475 -2.63769 -1.98746 -0.0767153 -0.295344 42.7182 -21.5164 5.31218 -35.5645 0.0 0.0 0.0 0.0 0.0 
826.936 719.254 -1573.91 -147.033 79.4515 141.065 2.52201 0.53966 4.7008 2.53427 0.239783 4.72554 2.55179 -0.551044 4.69949 2.52103 0.19721 4.72751 -10.686 3.99938 -7.56579 -10.5736 12.5778 -6.32257 -0.0 0.0 -0.0 -7.74435 3.25702 -14.4478 -7.34382 -29.188 72.9918 0.708717 -19.3451 0.120795 -41.1736 -3.07684 4.14367 3.21871 12.9144 26.6309 -0.0 0.0 -0.0 10.8411 -3.9239 -21.1081 -7.27831 6.32513 -69.7331 2.5093 51.1757 -1.20175 -3.4937 0.136123 -0.425248 2.07936 8.06425 -10.6757 0.0 0.0 0.0 20.2297 -1.28514 -0.594193 -3.06806 0.114108 0.456967 12.8482 -1.9573 -1.83343 -39.7715 0.0 0.0 -0.0 0.0 -0.0 9.32633 12.2344 -2.34701 -2.30533 -0.0880315 -0.342815 42.5024 -21.1999 5.28452 -35.3363 0.0 0.0 0.0 0.0 0.0 
819.218 717.208 -1575.02 -146.24 78.5151 139.9 2.85248 0.559936 4.65708 2.8645 0.262791 4.6832 2.88271 -0.494211 4.6645 2.85244 0.247828 4.68401 -8.59446 4.57703 -5.70674 -8.51371 12.543 -4.60231 -0.0 0.0 -0.0 -7.57972 1.76666 -14.5242 -6.77672 -29.5975 72.6056 0.687705 -18.8124 0.113927 -40.5525 -3.01011 4.10006 3.33224 13.2415 27.5441 -0.0 0.0 -0.0 11.1745 -3.47168 -21.8286 -9.71085 5.7499 -69.7934 2.26064 48.2294 -1.01204 -3.95567 0.156059 -0.480841 2.362 9.50346 -11.9922 0.0 0.0 0.0 20.3541 -1.1347 -0.210503 -2.10051 0.0807699 0.312221 10.8419 0.376927 -1.54962 -39.9839 0.0 0.0 -0.0 0.0 -0.0 9.23401 12.1071 -2.20602 -2.43472 -0.0925623 -0.362155 44.2414 -20.9593 5.42734 -35.287 0.0 0.0 0.0 0.0 0.0 
810.393 727.74 -1571.21 -145.26 78.4888 138.977 3.01871 0.577289 4.63905 3.03063 0.281253 4.66631 3.04976 -0.459611 4.65216 3.01968 0.280054 4.66638 -10.122 4.71817 -5.35037 -10.083 12.4871 -4.03587 -0.0 0.0 -0.0 -7.44188 1.33812 -14.3583 -6.71084 -29.9866 72.1023 0.796798 -21.5396 0.151564 -40.3043 -2.98358 4.08243 3.23338 13.2066 26.8237 -0.0 0.0 -0.0 10.8949 -4.01068 -21.2092 -11.9398 4.92797 -70.7473 1.99501 44.6569 -0.81944 -4.33022 0.172551 -0.525797 2.29962 8.80374 -11.8696 0.0 0.0 0.0 20.2073 -1.10152 -0.11508 -3.40287 0.125074 0.507181 10.9569 -0.726785 -1.56962 -39.8892 0.0 0.0 -0.0 0.0 -0.0 8.92681 12.0394 -2.28503 -2.58128 -0.0976412 -0.384075 41.8369 -20.9596 5.21917 -35.5716 0.0 0.0 0.0 0.0 0.0 
807.76 722.164 -1571.15 -144.778 78.656 138.374 3.05506 0.668223 4.63303 3.06692 0.372386 4.66607 3.09342 -0.365722 4.66659 3.06324 0.375044 4.66585 -11.8701 4.3951 -4.49401 -11.8748 11.2297 -3.09838 -0.0 0.0 -0.0 -7.46035 0.969554 -14.4931 -5.45831 -30.3056 71.2969 0.883477 -23.6363 0.184863 -40.7075 -3.02672 4.11101 2.88525 14.3575 24.7109 -0.0 0.0 -0.0 10.7584 -4.06931 -20.9277 -12.3287 4.49436 -71.263 1.862 42.6835 -0.72758 -4.58952 0.184142 -0.556858 2.21037 7.6478 -11.7571 0.0 0.0 0.0 20.4841 -1.06997 -0.187088 -4.30997 0.153305 0.64353 14.1369 -4.134 -2.02113 -39.7754 0.0 0.0 -0.0 0.0 -0.0 8.49246 11.9583 -2.00861 -2.65537 -0.100188 -0.395161 42.3143 -20.7056 5.25482 -35.3167 0.0 0.0 0.0 0.0 0.0 
798.822 722.486 -1568.0 -143.441 79.1732 136.996 3.06381 0.968518 4.54515 3.07504 0.67765 4.59742 3.12593 -0.0497915 4.64672 3.09647 0.683908 4.59649 -12.6978 4.92688 -4.68406 -12.7259 12.321 -3.03874 -0.0 0.0 -0.0 -7.48581 0.653753 -14.628 -5.54673 -30.2571 70.8347 1.04129 -27.2851 0.25274 -41.286 -3.08896 4.15148 2.54058 15.3384 22.6355 -0.0 0.0 -0.0 10.6479 -4.17832 -20.6951 -12.5257 4.38572 -71.3485 1.5684 37.8424 -0.537662 -3.55357 0.138682 -0.432461 2.0227 6.34295 -11.0248 0.0 0.0 0.0 20.4094 -1.07917 -0.204824 -6.16986 0.204416 0.924372 15.4231 -3.15545 -2.18558 -39.998 0.0 0.0 -0.0 0.0 -0.0 8.21708 11.8786 -1.9284 -4.02892 -0.144789 -0.601237 42.5394 -19.6863 5.24875 -34.7738 0.0 0.0 0.0 0.0 0.0 
795.382 725.678 -1565.69 -142.302 79.9528 135.969 3.12807 1.0297 4.50199 3.13904 0.74145 4.55823 3.19445 0.025104 4.61794 3.1655 0.753339 4.55628 -14.6977 5.24474 -4.47192 -14.7766 12.6979 -2.51254 -0.0 0.0 -0.0 -7.14146 -0.206083 -14.1417 -4.34201 -29.922 70.5359 1.12079 -29.0385 0.290266 -41.7906 -3.14357 4.18627 1.87047 16.8066 18.633 -0.0 0.0 -0.0 10.5883 -4.37681 -20.5579 -13.8207 4.31374 -71.8119 1.37832 34.3225 -0.425658 -3.50869 0.136763 -0.427054 1.86156 4.98445 -10.4927 0.0 0.0 0.0 20.5412 -1.06867 -0.323728 -9.13188 0.266914 1.37456 18.6095 -5.24725 -2.61862 -39.1806 0.0 0.0 -0.0 0.0 -0.0 8.0737 11.7751 -1.88964 -4.76344 -0.166607 -0.71185 42.3483 -19.0226 5.2164 -33.9279 0.0 0.0 0.0 0.0 0.0 
796.14 724.163 -1564.45 -142.366 80.3809 135.998 3.17278 1.0625 4.40581 3.18324 0.780279 4.46433 3.24052 0.0818197 4.53113 3.21276 0.79568 4.46162 -16.1401 5.17877 -5.16838 -16.2335 12.8951 -3.03292 -0.0 0.0 -0.0 -6.95816 -0.723875 -13.8931 -3.1185 -29.5464 70.3591 1.1971 -30.6671 0.328252 -42.1717 -3.18503 4.21224 1.28693 18.1758 15.3347 -0.0 0.0 -0.0 10.5978 -4.47 -20.5688 -14.4004 4.38037 -72.0968 1.25157 31.7971 -0.356497 -3.45682 0.134551 -0.420803 1.68773 4.27962 -9.598 0.0 0.0 0.0 20.9059 -1.01151 -0.386763 -10.9879 0.294181 1.65803 21.4264 -6.10163 -2.98323 -38.6439 0.0 0.0 -0.0 0.0 -0.0 7.89121 11.1443 -1.90516 -5.34735 -0.182938 -0.799973 41.7573 -18.5915 5.15505 -33.4606 0.0 0.0 0.0 0.0 0.0 
792.906 726.954 -1560.94 -144.936 79.9944 138.824 3.27719 1.0481 4.27651 3.28703 0.774109 4.33438 3.34199 0.103587 4.40162 3.31585 0.796782 4.33028 -17.1059 5.11238 -4.70532 -17.2186 12.4422 -2.51722 -0.0 0.0 -0.0 -6.94538 -0.924578 -13.9158 -2.27288 -29.0209 69.8963 1.34846 -33.7408 0.408951 -42.3109 -3.20021 4.22164 0.922916 18.408 13.1343 -0.0 0.0 -0.0 10.566 -4.18163 -20.5298 -15.3827 3.70197 -72.1519 1.05454 27.5813 -0.258844 -3.27097 0.126672 -0.398388 1.60823 2.62233 -9.74152 0.0 0.0 0.0 21.039 -0.947118 -0.483237 -12.424 0.30897 1.87788 21.048 -7.09063 -2.9485 -38.5169 0.0 0.0 -0.0 0.0 -0.0 7.42101 11.7856 -1.73468 -5.76105 -0.193964 -0.862504 41.8359 -18.2202 5.15389 -33.7598 0.0 0.0 0.0 0.0 0.0 
